<svg id="visual" viewBox="0 0 540 960" width="540" height="960" xmlns="http://www.w3.org/2000/svg" xmlns:xlink="http://www.w3.org/1999/xlink" version="1.1"><path d="M0 59L8.2 71.7C16.3 84.3 32.7 109.7 49 111.2C65.3 112.7 81.7 90.3 98 95.2C114.3 100 130.7 132 147 130.5C163.3 129 179.7 94 196 76.5C212.3 59 228.7 59 245.2 65.3C261.7 71.7 278.3 84.3 294.8 100.3C311.3 116.3 327.7 135.7 344 132.5C360.3 129.3 376.7 103.7 393 98.8C409.3 94 425.7 110 442 114.8C458.3 119.7 474.7 113.3 491 103.7C507.3 94 523.7 81 531.8 74.5L540 68L540 0L531.8 0C523.7 0 507.3 0 491 0C474.7 0 458.3 0 442 0C425.7 0 409.3 0 393 0C376.7 0 360.3 0 344 0C327.7 0 311.3 0 294.8 0C278.3 0 261.7 0 245.2 0C228.7 0 212.3 0 196 0C179.7 0 163.3 0 147 0C130.7 0 114.3 0 98 0C81.7 0 65.3 0 49 0C32.7 0 16.3 0 8.2 0L0 0Z" fill="#004cbb"></path><path d="M0 164L8.2 172C16.3 180 32.7 196 49 210.5C65.3 225 81.7 238 98 242.8C114.3 247.7 130.7 244.3 147 237.8C163.3 231.3 179.7 221.7 196 224.8C212.3 228 228.7 244 245.2 258.5C261.7 273 278.3 286 294.8 297.2C311.3 308.3 327.7 317.7 344 314.3C360.3 311 376.7 295 393 290.3C409.3 285.7 425.7 292.3 442 289.2C458.3 286 474.7 273 491 255.3C507.3 237.7 523.7 215.3 531.8 204.2L540 193L540 66L531.8 72.5C523.7 79 507.3 92 491 101.7C474.7 111.3 458.3 117.7 442 112.8C425.7 108 409.3 92 393 96.8C376.7 101.7 360.3 127.3 344 130.5C327.7 133.7 311.3 114.3 294.8 98.3C278.3 82.3 261.7 69.7 245.2 63.3C228.7 57 212.3 57 196 74.5C179.7 92 163.3 127 147 128.5C130.7 130 114.3 98 98 93.2C81.7 88.3 65.3 110.7 49 109.2C32.7 107.7 16.3 82.3 8.2 69.7L0 57Z" fill="#2573ff"></path><path d="M0 289L8.2 290.7C16.3 292.3 32.7 295.7 49 319.7C65.3 343.7 81.7 388.3 98 394.7C114.3 401 130.7 369 147 361C163.3 353 179.7 369 196 377C212.3 385 228.7 385 245.2 405.8C261.7 426.7 278.3 468.3 294.8 471.5C311.3 474.7 327.7 439.3 344 418.5C360.3 397.7 376.7 391.3 393 391.3C409.3 391.3 425.7 397.7 442 397.7C458.3 397.7 474.7 391.3 491 385C507.3 378.7 523.7 372.3 531.8 369.2L540 366L540 191L531.8 202.2C523.7 213.3 507.3 235.7 491 253.3C474.7 271 458.3 284 442 287.2C425.7 290.3 409.3 283.7 393 288.3C376.7 293 360.3 309 344 312.3C327.7 315.7 311.3 306.3 294.8 295.2C278.3 284 261.7 271 245.2 256.5C228.7 242 212.3 226 196 222.8C179.7 219.7 163.3 229.3 147 235.8C130.7 242.3 114.3 245.7 98 240.8C81.7 236 65.3 223 49 208.5C32.7 194 16.3 178 8.2 170L0 162Z" fill="#6198ff"></path><path d="M0 500L8.2 540C16.3 580 32.7 660 49 676C65.3 692 81.7 644 98 623.2C114.3 602.3 130.7 608.7 147 639.2C163.3 669.7 179.7 724.3 196 756.3C212.3 788.3 228.7 797.7 245.2 783.2C261.7 768.7 278.3 730.3 294.8 700C311.3 669.7 327.7 647.3 344 644.2C360.3 641 376.7 657 393 652.2C409.3 647.3 425.7 621.7 442 631.3C458.3 641 474.7 686 491 703.7C507.3 721.3 523.7 711.7 531.8 706.8L540 702L540 364L531.8 367.2C523.7 370.3 507.3 376.7 491 383C474.7 389.3 458.3 395.7 442 395.7C425.7 395.7 409.3 389.3 393 389.3C376.7 389.3 360.3 395.7 344 416.5C327.7 437.3 311.3 472.7 294.8 469.5C278.3 466.3 261.7 424.7 245.2 403.8C228.7 383 212.3 383 196 375C179.7 367 163.3 351 147 359C130.7 367 114.3 399 98 392.7C81.7 386.3 65.3 341.7 49 317.7C32.7 293.7 16.3 290.3 8.2 288.7L0 287Z" fill="#2573ff"></path><path d="M0 961L8.2 961C16.3 961 32.7 961 49 961C65.3 961 81.7 961 98 961C114.3 961 130.7 961 147 961C163.3 961 179.7 961 196 961C212.3 961 228.7 961 245.2 961C261.7 961 278.3 961 294.8 961C311.3 961 327.7 961 344 961C360.3 961 376.7 961 393 961C409.3 961 425.7 961 442 961C458.3 961 474.7 961 491 961C507.3 961 523.7 961 531.8 961L540 961L540 700L531.8 704.8C523.7 709.7 507.3 719.3 491 701.7C474.7 684 458.3 639 442 629.3C425.7 619.7 409.3 645.3 393 650.2C376.7 655 360.3 639 344 642.2C327.7 645.3 311.3 667.7 294.8 698C278.3 728.3 261.7 766.7 245.2 781.2C228.7 795.7 212.3 786.3 196 754.3C179.7 722.3 163.3 667.7 147 637.2C130.7 606.7 114.3 600.3 98 621.2C81.7 642 65.3 690 49 674C32.7 658 16.3 578 8.2 538L0 498Z" fill="#004cbb"></path></svg>