<svg id="visual" viewBox="0 0 540 960" width="540" height="960" xmlns="http://www.w3.org/2000/svg" xmlns:xlink="http://www.w3.org/1999/xlink" version="1.1"><path d="M0 164L8.2 164C16.3 164 32.7 164 49 164C65.3 164 81.7 164 98 160.8C114.3 157.7 130.7 151.3 147 156.2C163.3 161 179.7 177 196 178.7C212.3 180.3 228.7 167.7 245.2 166C261.7 164.3 278.3 173.7 294.8 180C311.3 186.3 327.7 189.7 344 194.5C360.3 199.3 376.7 205.7 393 194.5C409.3 183.3 425.7 154.7 442 145.2C458.3 135.7 474.7 145.3 491 142.2C507.3 139 523.7 123 531.8 115L540 107L540 0L531.8 0C523.7 0 507.3 0 491 0C474.7 0 458.3 0 442 0C425.7 0 409.3 0 393 0C376.7 0 360.3 0 344 0C327.7 0 311.3 0 294.8 0C278.3 0 261.7 0 245.2 0C228.7 0 212.3 0 196 0C179.7 0 163.3 0 147 0C130.7 0 114.3 0 98 0C81.7 0 65.3 0 49 0C32.7 0 16.3 0 8.2 0L0 0Z" fill="#1e1e1e"></path><path d="M0 222L8.2 233.2C16.3 244.3 32.7 266.7 49 274.7C65.3 282.7 81.7 276.3 98 279.5C114.3 282.7 130.7 295.3 147 296.8C163.3 298.3 179.7 288.7 196 290.3C212.3 292 228.7 305 245.2 303.5C261.7 302 278.3 286 294.8 286C311.3 286 327.7 302 344 305.2C360.3 308.3 376.7 298.7 393 290.7C409.3 282.7 425.7 276.3 442 271.5C458.3 266.7 474.7 263.3 491 245.7C507.3 228 523.7 196 531.8 180L540 164L540 105L531.8 113C523.7 121 507.3 137 491 140.2C474.7 143.3 458.3 133.7 442 143.2C425.7 152.7 409.3 181.3 393 192.5C376.7 203.7 360.3 197.3 344 192.5C327.7 187.7 311.3 184.3 294.8 178C278.3 171.7 261.7 162.3 245.2 164C228.7 165.7 212.3 178.3 196 176.7C179.7 175 163.3 159 147 154.2C130.7 149.3 114.3 155.7 98 158.8C81.7 162 65.3 162 49 162C32.7 162 16.3 162 8.2 162L0 162Z" fill="#141414"></path><path d="M0 577L8.2 575.3C16.3 573.7 32.7 570.3 49 544.7C65.3 519 81.7 471 98 491.8C114.3 512.7 130.7 602.3 147 610.3C163.3 618.3 179.7 544.7 196 533.5C212.3 522.3 228.7 573.7 245.2 567.3C261.7 561 278.3 497 294.8 497C311.3 497 327.7 561 344 578.7C360.3 596.3 376.7 567.7 393 532.5C409.3 497.3 425.7 455.7 442 452.3C458.3 449 474.7 484 491 490.3C507.3 496.7 523.7 474.3 531.8 463.2L540 452L540 162L531.8 178C523.7 194 507.3 226 491 243.7C474.7 261.3 458.3 264.7 442 269.5C425.7 274.3 409.3 280.7 393 288.7C376.7 296.7 360.3 306.3 344 303.2C327.7 300 311.3 284 294.8 284C278.3 284 261.7 300 245.2 301.5C228.7 303 212.3 290 196 288.3C179.7 286.7 163.3 296.3 147 294.8C130.7 293.3 114.3 280.7 98 277.5C81.7 274.3 65.3 280.7 49 272.7C32.7 264.7 16.3 242.3 8.2 231.2L0 220Z" fill="#0d0d0d"></path><path d="M0 721L8.2 732.2C16.3 743.3 32.7 765.7 49 767.3C65.3 769 81.7 750 98 756.5C114.3 763 130.7 795 147 795C163.3 795 179.7 763 196 767.7C212.3 772.3 228.7 813.7 245.2 837.7C261.7 861.7 278.3 868.3 294.8 852.3C311.3 836.3 327.7 797.7 344 791.2C360.3 784.7 376.7 810.3 393 816.8C409.3 823.3 425.7 810.7 442 797.8C458.3 785 474.7 772 491 778.3C507.3 784.7 523.7 810.3 531.8 823.2L540 836L540 450L531.8 461.2C523.7 472.3 507.3 494.7 491 488.3C474.7 482 458.3 447 442 450.3C425.7 453.7 409.3 495.3 393 530.5C376.7 565.7 360.3 594.3 344 576.7C327.7 559 311.3 495 294.8 495C278.3 495 261.7 559 245.2 565.3C228.7 571.7 212.3 520.3 196 531.5C179.7 542.7 163.3 616.3 147 608.3C130.7 600.3 114.3 510.7 98 489.8C81.7 469 65.3 517 49 542.7C32.7 568.3 16.3 571.7 8.2 573.3L0 575Z" fill="#141414"></path><path d="M0 961L8.2 961C16.3 961 32.7 961 49 961C65.3 961 81.7 961 98 961C114.3 961 130.7 961 147 961C163.3 961 179.7 961 196 961C212.3 961 228.7 961 245.2 961C261.7 961 278.3 961 294.8 961C311.3 961 327.7 961 344 961C360.3 961 376.7 961 393 961C409.3 961 425.7 961 442 961C458.3 961 474.7 961 491 961C507.3 961 523.7 961 531.8 961L540 961L540 834L531.8 821.2C523.7 808.3 507.3 782.7 491 776.3C474.7 770 458.3 783 442 795.8C425.7 808.7 409.3 821.3 393 814.8C376.7 808.3 360.3 782.7 344 789.2C327.7 795.7 311.3 834.3 294.8 850.3C278.3 866.3 261.7 859.7 245.2 835.7C228.7 811.7 212.3 770.3 196 765.7C179.7 761 163.3 793 147 793C130.7 793 114.3 761 98 754.5C81.7 748 65.3 767 49 765.3C32.7 763.7 16.3 741.3 8.2 730.2L0 719Z" fill="#1e1e1e"></path></svg>