<svg id="visual" viewBox="0 0 900 600" width="900" height="600" xmlns="http://www.w3.org/2000/svg" xmlns:xlink="http://www.w3.org/1999/xlink" version="1.1"><path d="M0 61L13.7 67C27.3 73 54.7 85 82 82C109.3 79 136.7 61 163.8 62C191 63 218 83 245.2 93C272.3 103 299.7 103 327 92C354.3 81 381.7 59 409 52C436.3 45 463.7 53 491 56C518.3 59 545.7 57 573 63C600.3 69 627.7 83 654.8 85C682 87 709 77 736.2 67C763.3 57 790.7 47 818 50C845.3 53 872.7 69 886.3 77L900 85L900 0L886.3 0C872.7 0 845.3 0 818 0C790.7 0 763.3 0 736.2 0C709 0 682 0 654.8 0C627.7 0 600.3 0 573 0C545.7 0 518.3 0 491 0C463.7 0 436.3 0 409 0C381.7 0 354.3 0 327 0C299.7 0 272.3 0 245.2 0C218 0 191 0 163.8 0C136.7 0 109.3 0 82 0C54.7 0 27.3 0 13.7 0L0 0Z" fill="#0d0d0d"></path><path d="M0 187L13.7 179C27.3 171 54.7 155 82 147C109.3 139 136.7 139 163.8 144C191 149 218 159 245.2 172C272.3 185 299.7 201 327 186C354.3 171 381.7 125 409 113C436.3 101 463.7 123 491 130C518.3 137 545.7 129 573 128C600.3 127 627.7 133 654.8 143C682 153 709 167 736.2 163C763.3 159 790.7 137 818 129C845.3 121 872.7 127 886.3 130L900 133L900 83L886.3 75C872.7 67 845.3 51 818 48C790.7 45 763.3 55 736.2 65C709 75 682 85 654.8 83C627.7 81 600.3 67 573 61C545.7 55 518.3 57 491 54C463.7 51 436.3 43 409 50C381.7 57 354.3 79 327 90C299.7 101 272.3 101 245.2 91C218 81 191 61 163.8 60C136.7 59 109.3 77 82 80C54.7 83 27.3 71 13.7 65L0 59Z" fill="#121212"></path><path d="M0 295L13.7 296C27.3 297 54.7 299 82 285C109.3 271 136.7 241 163.8 241C191 241 218 271 245.2 286C272.3 301 299.7 301 327 294C354.3 287 381.7 273 409 268C436.3 263 463.7 267 491 268C518.3 269 545.7 267 573 260C600.3 253 627.7 241 654.8 248C682 255 709 281 736.2 288C763.3 295 790.7 283 818 265C845.3 247 872.7 223 886.3 211L900 199L900 131L886.3 128C872.7 125 845.3 119 818 127C790.7 135 763.3 157 736.2 161C709 165 682 151 654.8 141C627.7 131 600.3 125 573 126C545.7 127 518.3 135 491 128C463.7 121 436.3 99 409 111C381.7 123 354.3 169 327 184C299.7 199 272.3 183 245.2 170C218 157 191 147 163.8 142C136.7 137 109.3 137 82 145C54.7 153 27.3 169 13.7 177L0 185Z" fill="#161616"></path><path d="M0 493L13.7 479C27.3 465 54.7 437 82 407C109.3 377 136.7 345 163.8 362C191 379 218 445 245.2 455C272.3 465 299.7 419 327 418C354.3 417 381.7 461 409 466C436.3 471 463.7 437 491 437C518.3 437 545.7 471 573 479C600.3 487 627.7 469 654.8 448C682 427 709 403 736.2 407C763.3 411 790.7 443 818 437C845.3 431 872.7 387 886.3 365L900 343L900 197L886.3 209C872.7 221 845.3 245 818 263C790.7 281 763.3 293 736.2 286C709 279 682 253 654.8 246C627.7 239 600.3 251 573 258C545.7 265 518.3 267 491 266C463.7 265 436.3 261 409 266C381.7 271 354.3 285 327 292C299.7 299 272.3 299 245.2 284C218 269 191 239 163.8 239C136.7 239 109.3 269 82 283C54.7 297 27.3 295 13.7 294L0 293Z" fill="#1a1a1a"></path><path d="M0 601L13.7 601C27.3 601 54.7 601 82 601C109.3 601 136.7 601 163.8 601C191 601 218 601 245.2 601C272.3 601 299.7 601 327 601C354.3 601 381.7 601 409 601C436.3 601 463.7 601 491 601C518.3 601 545.7 601 573 601C600.3 601 627.7 601 654.8 601C682 601 709 601 736.2 601C763.3 601 790.7 601 818 601C845.3 601 872.7 601 886.3 601L900 601L900 341L886.3 363C872.7 385 845.3 429 818 435C790.7 441 763.3 409 736.2 405C709 401 682 425 654.8 446C627.7 467 600.3 485 573 477C545.7 469 518.3 435 491 435C463.7 435 436.3 469 409 464C381.7 459 354.3 415 327 416C299.7 417 272.3 463 245.2 453C218 443 191 377 163.8 360C136.7 343 109.3 375 82 405C54.7 435 27.3 463 13.7 477L0 491Z" fill="#1e1e1e"></path></svg>