<svg id="visual" viewBox="0 0 900 600" width="900" height="600" xmlns="http://www.w3.org/2000/svg" xmlns:xlink="http://www.w3.org/1999/xlink" version="1.1"><path d="M0 229L13.7 222C27.3 215 54.7 201 82 204C109.3 207 136.7 227 163.8 229C191 231 218 215 245.2 223C272.3 231 299.7 263 327 263C354.3 263 381.7 231 409 204C436.3 177 463.7 155 491 160C518.3 165 545.7 197 573 189C600.3 181 627.7 133 654.8 132C682 131 709 177 736.2 204C763.3 231 790.7 239 818 216C845.3 193 872.7 139 886.3 112L900 85L900 0L886.3 0C872.7 0 845.3 0 818 0C790.7 0 763.3 0 736.2 0C709 0 682 0 654.8 0C627.7 0 600.3 0 573 0C545.7 0 518.3 0 491 0C463.7 0 436.3 0 409 0C381.7 0 354.3 0 327 0C299.7 0 272.3 0 245.2 0C218 0 191 0 163.8 0C136.7 0 109.3 0 82 0C54.7 0 27.3 0 13.7 0L0 0Z" fill="#6198ff"></path><path d="M0 331L13.7 323C27.3 315 54.7 299 82 294C109.3 289 136.7 295 163.8 294C191 293 218 285 245.2 291C272.3 297 299.7 317 327 317C354.3 317 381.7 297 409 277C436.3 257 463.7 237 491 241C518.3 245 545.7 273 573 261C600.3 249 627.7 197 654.8 198C682 199 709 253 736.2 283C763.3 313 790.7 319 818 293C845.3 267 872.7 209 886.3 180L900 151L900 83L886.3 110C872.7 137 845.3 191 818 214C790.7 237 763.3 229 736.2 202C709 175 682 129 654.8 130C627.7 131 600.3 179 573 187C545.7 195 518.3 163 491 158C463.7 153 436.3 175 409 202C381.7 229 354.3 261 327 261C299.7 261 272.3 229 245.2 221C218 213 191 229 163.8 227C136.7 225 109.3 205 82 202C54.7 199 27.3 213 13.7 220L0 227Z" fill="#3c80ff"></path><path d="M0 403L13.7 406C27.3 409 54.7 415 82 407C109.3 399 136.7 377 163.8 371C191 365 218 375 245.2 383C272.3 391 299.7 397 327 400C354.3 403 381.7 403 409 398C436.3 393 463.7 383 491 380C518.3 377 545.7 381 573 367C600.3 353 627.7 321 654.8 317C682 313 709 337 736.2 356C763.3 375 790.7 389 818 379C845.3 369 872.7 335 886.3 318L900 301L900 149L886.3 178C872.7 207 845.3 265 818 291C790.7 317 763.3 311 736.2 281C709 251 682 197 654.8 196C627.7 195 600.3 247 573 259C545.7 271 518.3 243 491 239C463.7 235 436.3 255 409 275C381.7 295 354.3 315 327 315C299.7 315 272.3 295 245.2 289C218 283 191 291 163.8 292C136.7 293 109.3 287 82 292C54.7 297 27.3 313 13.7 321L0 329Z" fill="#0066ff"></path><path d="M0 499L13.7 505C27.3 511 54.7 523 82 520C109.3 517 136.7 499 163.8 491C191 483 218 485 245.2 495C272.3 505 299.7 523 327 522C354.3 521 381.7 501 409 502C436.3 503 463.7 525 491 526C518.3 527 545.7 507 573 502C600.3 497 627.7 507 654.8 512C682 517 709 517 736.2 515C763.3 513 790.7 509 818 515C845.3 521 872.7 537 886.3 545L900 553L900 299L886.3 316C872.7 333 845.3 367 818 377C790.7 387 763.3 373 736.2 354C709 335 682 311 654.8 315C627.7 319 600.3 351 573 365C545.7 379 518.3 375 491 378C463.7 381 436.3 391 409 396C381.7 401 354.3 401 327 398C299.7 395 272.3 389 245.2 381C218 373 191 363 163.8 369C136.7 375 109.3 397 82 405C54.7 413 27.3 407 13.7 404L0 401Z" fill="#0059dd"></path><path d="M0 601L13.7 601C27.3 601 54.7 601 82 601C109.3 601 136.7 601 163.8 601C191 601 218 601 245.2 601C272.3 601 299.7 601 327 601C354.3 601 381.7 601 409 601C436.3 601 463.7 601 491 601C518.3 601 545.7 601 573 601C600.3 601 627.7 601 654.8 601C682 601 709 601 736.2 601C763.3 601 790.7 601 818 601C845.3 601 872.7 601 886.3 601L900 601L900 551L886.3 543C872.7 535 845.3 519 818 513C790.7 507 763.3 511 736.2 513C709 515 682 515 654.8 510C627.7 505 600.3 495 573 500C545.7 505 518.3 525 491 524C463.7 523 436.3 501 409 500C381.7 499 354.3 519 327 520C299.7 521 272.3 503 245.2 493C218 483 191 481 163.8 489C136.7 497 109.3 515 82 518C54.7 521 27.3 509 13.7 503L0 497Z" fill="#004cbb"></path></svg>