<svg id="visual" viewBox="0 0 900 600" width="900" height="600" xmlns="http://www.w3.org/2000/svg" xmlns:xlink="http://www.w3.org/1999/xlink" version="1.1"><path d="M0 37L13.7 45C27.3 53 54.7 69 82 70C109.3 71 136.7 57 163.8 60C191 63 218 83 245.2 82C272.3 81 299.7 59 327 48C354.3 37 381.7 37 409 41C436.3 45 463.7 53 491 63C518.3 73 545.7 85 573 83C600.3 81 627.7 65 654.8 62C682 59 709 69 736.2 72C763.3 75 790.7 71 818 65C845.3 59 872.7 51 886.3 47L900 43L900 0L886.3 0C872.7 0 845.3 0 818 0C790.7 0 763.3 0 736.2 0C709 0 682 0 654.8 0C627.7 0 600.3 0 573 0C545.7 0 518.3 0 491 0C463.7 0 436.3 0 409 0C381.7 0 354.3 0 327 0C299.7 0 272.3 0 245.2 0C218 0 191 0 163.8 0C136.7 0 109.3 0 82 0C54.7 0 27.3 0 13.7 0L0 0Z" fill="#377ebb"></path><path d="M0 103L13.7 108C27.3 113 54.7 123 82 132C109.3 141 136.7 149 163.8 152C191 155 218 153 245.2 149C272.3 145 299.7 139 327 141C354.3 143 381.7 153 409 162C436.3 171 463.7 179 491 186C518.3 193 545.7 199 573 197C600.3 195 627.7 185 654.8 182C682 179 709 183 736.2 181C763.3 179 790.7 171 818 160C845.3 149 872.7 135 886.3 128L900 121L900 41L886.3 45C872.7 49 845.3 57 818 63C790.7 69 763.3 73 736.2 70C709 67 682 57 654.8 60C627.7 63 600.3 79 573 81C545.7 83 518.3 71 491 61C463.7 51 436.3 43 409 39C381.7 35 354.3 35 327 46C299.7 57 272.3 79 245.2 80C218 81 191 61 163.8 58C136.7 55 109.3 69 82 68C54.7 67 27.3 51 13.7 43L0 35Z" fill="#60b3f8"></path><path d="M0 181L13.7 182C27.3 183 54.7 185 82 200C109.3 215 136.7 243 163.8 247C191 251 218 231 245.2 226C272.3 221 299.7 231 327 236C354.3 241 381.7 241 409 254C436.3 267 463.7 293 491 295C518.3 297 545.7 275 573 262C600.3 249 627.7 245 654.8 245C682 245 709 249 736.2 249C763.3 249 790.7 245 818 241C845.3 237 872.7 233 886.3 231L900 229L900 119L886.3 126C872.7 133 845.3 147 818 158C790.7 169 763.3 177 736.2 179C709 181 682 177 654.8 180C627.7 183 600.3 193 573 195C545.7 197 518.3 191 491 184C463.7 177 436.3 169 409 160C381.7 151 354.3 141 327 139C299.7 137 272.3 143 245.2 147C218 151 191 153 163.8 150C136.7 147 109.3 139 82 130C54.7 121 27.3 111 13.7 106L0 101Z" fill="#8bc6f9"></path><path d="M0 313L13.7 338C27.3 363 54.7 413 82 423C109.3 433 136.7 403 163.8 390C191 377 218 381 245.2 400C272.3 419 299.7 453 327 473C354.3 493 381.7 499 409 490C436.3 481 463.7 457 491 438C518.3 419 545.7 405 573 403C600.3 401 627.7 411 654.8 408C682 405 709 389 736.2 395C763.3 401 790.7 429 818 440C845.3 451 872.7 445 886.3 442L900 439L900 227L886.3 229C872.7 231 845.3 235 818 239C790.7 243 763.3 247 736.2 247C709 247 682 243 654.8 243C627.7 243 600.3 247 573 260C545.7 273 518.3 295 491 293C463.7 291 436.3 265 409 252C381.7 239 354.3 239 327 234C299.7 229 272.3 219 245.2 224C218 229 191 249 163.8 245C136.7 241 109.3 213 82 198C54.7 183 27.3 181 13.7 180L0 179Z" fill="#60b3f8"></path><path d="M0 601L13.7 601C27.3 601 54.7 601 82 601C109.3 601 136.7 601 163.8 601C191 601 218 601 245.2 601C272.3 601 299.7 601 327 601C354.3 601 381.7 601 409 601C436.3 601 463.7 601 491 601C518.3 601 545.7 601 573 601C600.3 601 627.7 601 654.8 601C682 601 709 601 736.2 601C763.3 601 790.7 601 818 601C845.3 601 872.7 601 886.3 601L900 601L900 437L886.3 440C872.7 443 845.3 449 818 438C790.7 427 763.3 399 736.2 393C709 387 682 403 654.8 406C627.7 409 600.3 399 573 401C545.7 403 518.3 417 491 436C463.7 455 436.3 479 409 488C381.7 497 354.3 491 327 471C299.7 451 272.3 417 245.2 398C218 379 191 375 163.8 388C136.7 401 109.3 431 82 421C54.7 411 27.3 361 13.7 336L0 311Z" fill="#377ebb"></path></svg>